PathFileType	4	(X/Y/Z)	s10c0203.trc
DataRate	CameraRate	NumFrames	NumMarkers	Units	OrigDataRate	OrigDataStartFrame	OrigNumFrames
200	200	4	49	mm	200	1000	2000
Frame#	Time	racr			lacr			c7			jug			rlel			rdr			llel			ldr			s2			lic			ric			lasi			rasi			rpsi			lpsi			rgt			lgt			rth1			rth2			rth3			rth4			rlfc			rmfc			rsh1			rsh2			rsh3			rsh4			rlmal			rmmal			rcal			rtoe			rmt5			lth1			lth2			lth4			lth3			llfc			lmfc			llmal			lcal			lmt5			lsh1			lsh2			lsh3			lsh4			ltoe			SBIKE			LBIKE			RBIKE			
		X1	Y1	Z1	X2	Y2	Z2	X3	Y3	Z3	X4	Y4	Z4	X5	Y5	Z5	X6	Y6	Z6	X7	Y7	Z7	X8	Y8	Z8	X9	Y9	Z9	X10	Y10	Z10	X11	Y11	Z11	X12	Y12	Z12	X13	Y13	Z13	X14	Y14	Z14	X15	Y15	Z15	X16	Y16	Z16	X17	Y17	Z17	X18	Y18	Z18	X19	Y19	Z19	X20	Y20	Z20	X21	Y21	Z21	X22	Y22	Z22	X23	Y23	Z23	X24	Y24	Z24	X25	Y25	Z25	X26	Y26	Z26	X27	Y27	Z27	X28	Y28	Z28	X29	Y29	Z29	X30	Y30	Z30	X31	Y31	Z31	X32	Y32	Z32	X33	Y33	Z33	X34	Y34	Z34	X35	Y35	Z35	X36	Y36	Z36	X37	Y37	Z37	X38	Y38	Z38	X39	Y39	Z39	X40	Y40	Z40	X41	Y41	Z41	X42	Y42	Z42	X43	Y43	Z43	X44	Y44	Z44	X45	Y45	Z45	X46	Y46	Z46	X47	Y47	Z47	X48	Y48	Z48	X49	Y49	Z49	
1000	5.0000	431.902449	1267.323990	-87.548085	449.562389	1287.684707	-362.816689	396.487409	1309.065954	-229.602563	392.625449	1160.073933	-230.813591	423.607612	1022.212684	25.092353	600.965638	909.953242	-32.651140	485.505191	1068.541278	-529.897752	605.360056	906.670788	-436.397956	-124.473290	1089.697352	-216.226263	20.741603	1108.108843	-390.386255	63.433502	1107.551002	-106.810442	59.401707	1023.043296	-371.451112	75.205341	1034.962005	-113.374577	-77.966269	1153.114920	-168.132463	-79.264340	1155.039424	-281.831409	-20.818328	1007.993932	-32.045160	-65.802870	955.468451	-409.362885	78.186571	906.419284	-10.582341	159.691456	874.817718	-27.501456	213.131354	808.280434	-32.400045	178.670736	904.729112	-42.140775	288.250834	737.412900	-50.753946	263.129650	723.302545	-166.392409	194.433558	668.366298	-19.557728	146.864470	595.135997	-38.654328	71.337545	553.838745	-41.839751	167.727160	579.078369	-67.038294	-8.314580	496.993010	-58.589733	16.291518	491.304290	-139.719546	-56.297414	519.739188	-106.608133	88.999454	324.782458	-102.014296	15.827173	369.031701	-39.262863	42.750387	857.289301	-417.647815	124.559446	830.500187	-403.987963	144.362965	861.510253	-401.064313	182.024517	765.040043	-385.785579	278.018911	710.849907	-363.574960	266.638591	704.576618	-249.272921	197.309685	341.125833	-385.260303	144.622588	302.649816	-345.200574	318.699423	268.051548	-405.529409	231.141532	597.131463	-400.236195	248.678776	512.065064	-390.984533	220.395764	428.516668	-394.026442	275.819936	511.879778	-364.476073	389.309424	308.240959	-354.049039	-217.640106	830.783577	-214.235656	-103.896323	80.531842	-418.383056	-103.919329	80.534100	-18.353978	
1001	5.0050	430.825629	1268.420136	-85.270039	450.537231	1287.866577	-359.975529	396.247278	1309.227318	-228.025776	393.303381	1160.505868	-228.386218	423.178472	1022.791730	25.963602	600.848573	910.087202	-32.793620	488.089361	1070.138729	-529.687275	605.792780	906.487523	-436.212335	-124.428277	1089.271165	-220.112596	22.873509	1106.484671	-392.331709	61.602534	1107.395433	-108.250192	60.267383	1021.441389	-372.867061	74.018539	1034.731421	-114.676635	-79.283485	1152.485877	-171.813334	-78.806512	1154.036675	-285.607041	-22.391944	1008.901970	-33.837913	-64.410465	954.063157	-411.543448	77.926609	910.247936	-12.724246	161.422215	881.302652	-29.158322	216.345017	816.593086	-32.508754	178.082298	911.978798	-43.645591	292.939914	746.423160	-50.712593	270.088895	730.573680	-167.039151	199.512763	676.509928	-19.948300	151.270960	603.912439	-38.886912	75.495963	563.071368	-42.090905	171.944413	587.723854	-67.283104	-4.821758	506.985387	-58.973269	19.967414	501.245751	-140.215548	-52.468068	529.812338	-106.914614	92.410570	334.562737	-101.953181	19.363498	379.084310	-39.421843	40.533536	852.913412	-418.884107	122.008049	824.661427	-404.803193	142.126570	855.133292	-401.580738	177.505046	757.907967	-385.626041	271.749109	702.521697	-361.744534	260.944690	696.203029	-248.401128	194.214588	331.509114	-384.841599	141.540333	293.259634	-344.809988	315.531950	258.289367	-405.264229	224.767031	588.382319	-400.235793	243.283022	503.344236	-390.945975	215.869182	419.544293	-393.718092	270.465745	503.695590	-364.974703	386.384175	297.970835	-353.746689	-217.615521	830.741489	-214.365677	-103.908697	80.493085	-418.373189	-103.924747	80.545855	-18.367085	
1002	5.0100	429.802877	1269.424017	-82.946133	451.410503	1288.080466	-357.122525	396.048068	1309.357202	-226.444185	393.715458	1161.165454	-225.962163	423.186264	1023.377417	26.949862	600.624978	910.205482	-32.914237	490.655111	1071.631051	-529.406855	606.254916	906.325599	-435.934993	-124.069746	1088.548153	-224.378152	25.320642	1105.083586	-394.177015	59.780904	1107.374745	-109.652482	61.652538	1020.062310	-374.088918	72.644091	1034.609895	-115.844486	-80.479492	1152.063052	-175.599423	-78.273550	1153.184652	-289.194968	-24.410793	1009.829741	-36.059263	-62.622654	953.141889	-413.619708	77.474465	914.343447	-14.940609	162.174630	888.126858	-30.585518	219.383311	825.110797	-32.663607	177.641319	918.694425	-46.119495	297.592799	755.402387	-50.818226	276.035241	738.304496	-167.420786	204.570667	685.173926	-19.988922	155.909143	612.832292	-39.007976	79.879026	572.320930	-42.351249	176.447956	596.575769	-67.485100	-0.716598	516.751153	-59.312967	24.082003	511.018422	-140.424190	-48.383545	539.664537	-107.222357	97.627508	344.857862	-100.928747	23.419145	388.898846	-39.592569	38.346666	849.386114	-420.410916	119.581039	819.890396	-406.771076	139.726381	849.301304	-402.120114	172.795870	751.342744	-385.796285	265.298163	694.252385	-360.863335	254.177683	687.385485	-248.295066	190.483029	322.291629	-384.590275	137.891240	284.117632	-344.326873	311.744402	248.685143	-405.058726	218.225148	579.388804	-400.546912	237.415414	494.525729	-391.043205	210.321414	410.284761	-393.395487	264.878182	495.141121	-364.963334	382.834419	287.905038	-353.480192	-217.691778	830.523289	-214.365313	-103.915869	80.493776	-418.364252	-103.923648	80.532518	-18.367446	
1003	5.0150	428.818762	1270.283524	-80.610953	452.233018	1288.245555	-354.299829	395.771418	1309.670594	-224.732399	394.153888	1161.687747	-223.526244	422.779607	1023.984306	28.022218	600.385912	910.334483	-33.001969	493.119684	1073.011553	-528.969062	606.703857	906.158159	-435.605551	-122.890299	1087.838641	-229.173852	28.017039	1103.898836	-395.895361	58.005091	1107.436717	-111.048794	63.084998	1018.782333	-374.744063	71.336538	1034.606264	-116.703851	-81.823453	1151.728795	-179.363630	-77.804101	1152.410751	-292.744480	-27.132545	1011.497633	-38.178943	-60.796396	952.453917	-415.689658	77.174710	918.910880	-16.881027	162.685912	894.701202	-32.442267	221.891223	833.720255	-32.616767	177.283277	925.615452	-48.212152	302.229831	764.593596	-51.514342	281.890432	746.489684	-167.794033	208.916015	694.241819	-20.080629	160.732893	621.998988	-39.044870	84.413242	581.850349	-42.588388	181.239555	605.626136	-67.599468	3.952694	526.215543	-59.637653	29.425694	520.926845	-140.886826	-43.747406	548.927111	-107.301087	102.034045	354.273675	-101.152698	27.873191	398.508698	-39.685177	36.370769	847.001164	-422.703946	116.528660	815.286305	-407.589863	137.295154	843.988729	-401.966822	167.726451	745.295354	-386.299034	258.616332	685.976116	-360.752546	247.182790	678.427854	-248.489570	186.079489	313.308140	-384.481015	133.780551	275.276170	-343.892462	307.338903	239.308593	-404.868974	211.580078	570.344604	-401.222456	231.125851	485.779316	-391.403422	203.931881	401.081361	-392.901420	258.792900	486.595296	-365.532494	378.714527	277.927732	-353.325874	-217.696012	830.512550	-214.522390	-103.902035	80.478765	-418.375327	-103.922471	80.534175	-18.371823	
